Coordinates
version=1
nRows=16
nColumns=33
inDegrees=yes

Units are S.I. units (second, meters, Newtons, ...)
Angles are in degrees.

endheader
time	ground_thorax_rot_x	ground_thorax_rot_y	ground_thorax_rot_z	ground_thorax_tx	ground_thorax_ty	ground_thorax_tz	clav_prot_r	clav_elev_r	scapula_abduction_r	scapula_elevation_r	scapula_upward_rot_r	scapula_winging_r	shoulder_elv_r	plane_of_elev_r	axial_rot_r	elbow_flexion_r	pro_sup_r	wrist_flex_r	wrist_dev_r	clav_prot_l	clav_elev_l	scapula_abduction_l	scapula_elevation_l	scapula_upward_rot_l	scapula_winging_l	shoulder_elv_l	plane_of_elev_l	axial_rot_l	elbow_flexion_l	pro_sup_l	wrist_flex_l	wrist_dev_l	
8.3900	-34.262816	-23.453457	28.578144	-90.162443	849.776242	-46.432993	26.111143	-45.000000	38.527889	-45.000000	-45.000000	2412.516096	-642.588160	20.521818	-142.890846	1798.744896	171.861955	18.335934	12.732812	-1.410533	32.450979	-30.707623	-45.000000	-45.000000	4407.184467	-4243.176911	26.957703	48.205980	1789.642370	-320.538801	12.059562	-22.049600	
8.4000	-34.263120	-23.664810	28.640387	-89.328193	849.469802	-46.381021	26.201414	-45.000000	38.649454	-45.000000	-45.000000	2412.509914	-642.635227	20.513026	-143.045389	1798.752036	171.722855	18.340510	12.810400	-1.401232	32.454953	-30.686366	-45.000000	-45.000000	4407.155867	-4243.174309	26.937760	48.204318	1789.654217	-320.528940	11.991910	-22.120874	
8.4100	-34.251694	-23.882434	28.718040	-88.459564	849.181488	-46.337480	26.302123	-45.000000	38.772254	-45.000000	-45.000000	2412.484389	-642.683950	20.518135	-143.223451	1798.772486	171.569484	18.359292	12.917402	-1.338223	32.479130	-30.661759	-45.000000	-45.000000	4407.106682	-4243.151682	26.908242	48.226232	1789.653235	-320.527462	11.926661	-22.214443	
8.4200	-34.259392	-24.073101	28.752756	-87.517543	848.924725	-46.307663	26.389668	-45.000000	38.863280	-45.000000	-45.000000	2412.491895	-642.727551	20.532577	-143.372143	1798.778090	171.395645	18.358567	12.987931	-1.333529	32.479260	-30.659429	-45.000000	-45.000000	4407.073365	-4243.127468	26.915310	48.350278	1789.672878	-320.534714	11.886158	-22.277243	
8.4300	-34.281102	-24.238100	28.752500	-86.494099	848.710850	-46.294936	26.463696	-45.000000	38.924797	-45.000000	-45.000000	2412.520454	-642.767695	20.559768	-143.521116	1798.775719	171.194098	18.350376	13.044550	-1.329119	32.473559	-30.683935	-45.000000	-45.000000	4407.049480	-4243.099165	26.952416	48.554310	1789.706267	-320.551745	11.866106	-22.326515	
8.4400	-34.314843	-24.377094	28.719565	-85.375719	848.552948	-46.302066	26.520809	-45.000000	38.957550	-45.000000	-45.000000	2412.568298	-642.804610	20.599347	-143.679736	1798.766526	170.959933	18.338155	13.092270	-1.306924	32.467916	-30.742714	-45.000000	-45.000000	4407.035364	-4243.065509	27.017342	48.840443	1789.749412	-320.577690	11.868406	-22.366215	
8.4500	-34.350148	-24.502008	28.666736	-84.156928	848.462194	-46.329538	26.553018	-45.000000	38.974645	-45.000000	-45.000000	2412.640716	-642.836190	20.639995	-143.867102	1798.749744	170.691223	18.323323	13.130227	-1.255914	32.464887	-30.829028	-45.000000	-45.000000	4407.030528	-4243.025794	27.108202	49.198451	1789.797134	-320.607216	11.893041	-22.395219	
8.4600	-34.378598	-24.622108	28.610487	-82.836133	848.446653	-46.375531	26.561926	-45.000000	38.985143	-45.000000	-45.000000	2412.730399	-642.863218	20.679341	-144.094414	1798.733183	170.391016	18.309386	13.169380	-1.162981	32.472590	-30.947459	-45.000000	-45.000000	4407.032570	-4242.980104	27.209380	49.622315	1789.845176	-320.633581	11.937038	-22.421535	
8.4700	-34.389152	-24.752246	28.563068	-81.411673	848.510060	-46.436154	26.569731	-45.000000	39.006604	-45.000000	-45.000000	2412.827895	-642.887191	20.722647	-144.351148	1798.713978	170.068930	18.292309	13.207036	-1.072267	32.480592	-31.073495	-45.000000	-45.000000	4407.035039	-4242.918520	27.322341	50.116383	1789.892501	-320.646365	11.999566	-22.437836	
8.4800	-34.376005	-24.901702	28.538048	-79.882026	848.651093	-46.506289	26.567865	-45.000000	39.043641	-45.000000	-45.000000	2412.934551	-642.907402	20.764360	-144.645136	1798.697050	169.731062	18.272900	13.248988	-0.978888	32.493096	-31.207117	-45.000000	-45.000000	4407.036707	-4242.842383	27.436014	50.678860	1789.937003	-320.633512	12.078709	-22.446111	
8.4900	-34.334536	-25.077139	28.542991	-78.245331	848.863123	-46.580202	26.583017	-45.000000	39.104612	-45.000000	-45.000000	2413.037811	-642.928293	20.814735	-144.960867	1798.683804	169.388166	18.248003	13.296549	-0.916969	32.501827	-31.330185	-45.000000	-45.000000	4407.030315	-4242.743577	27.552957	51.314037	1789.979844	-320.585756	12.170852	-22.442021	
8.5000	-34.277146	-25.265752	28.567622	-76.499366	849.134593	-46.652196	26.568852	-45.000000	39.168120	-45.000000	-45.000000	2413.160701	-642.944187	20.859591	-145.319536	1798.675544	169.039775	18.216488	13.351326	-0.846294	32.517571	-31.471853	-45.000000	-45.000000	4407.027807	-4242.645019	27.667078	52.006206	1790.030600	-320.492250	12.273519	-22.424995	
8.5100	-34.205094	-25.468514	28.612168	-74.641402	849.450055	-46.717212	26.555279	-45.000000	39.238037	-45.000000	-45.000000	2413.288103	-642.960055	20.910495	-145.699676	1798.667622	168.692809	18.180601	13.414797	-0.782101	32.534559	-31.615664	-45.000000	-45.000000	4407.022552	-4242.538192	27.785620	52.748975	1790.086023	-320.348967	12.382518	-22.393707	
8.5200	-34.125499	-25.681287	28.673082	-72.668466	849.791400	-46.771228	26.492680	-45.000000	39.300183	-45.000000	-45.000000	2413.447061	-642.969303	20.946290	-146.124882	1798.657657	168.342223	18.140553	13.483043	-0.682673	32.561657	-31.779401	-45.000000	-45.000000	4407.022966	-4242.440896	27.904563	53.518309	1790.147744	-320.151185	12.497414	-22.345679	
8.5300	-34.034937	-25.911243	28.759471	-70.577511	850.139306	-46.811430	26.431850	-45.000000	39.366177	-45.000000	-45.000000	2413.612835	-642.980681	20.983604	-146.561100	1798.645474	167.994745	18.097458	13.556359	-0.582016	32.588488	-31.941924	-45.000000	-45.000000	4407.018853	-4242.338563	28.026508	54.312689	1790.209465	-319.904467	12.614304	-22.281364	
8.5400	-33.938465	-26.156647	28.869027	-68.365884	850.474359	-46.836125	26.347610	-45.000000	39.427907	-45.000000	-45.000000	2413.799808	-642.991162	21.012695	-147.018669	1798.629886	167.647478	18.051110	13.632932	-0.458026	32.619353	-32.114255	-45.000000	-45.000000	4407.015411	-4242.242894	28.146611	55.113319	1790.272887	-319.612599	12.732313	-22.199832	
